<?xml version="1.0" encoding="utf-8"?>
<!-- Generator: Adobe Illustrator 28.0.0, SVG Export Plug-In . SVG Version: 6.00 Build 0)  -->
<svg version="1.1" id="Capa_1" xmlns="http://www.w3.org/2000/svg" xmlns:xlink="http://www.w3.org/1999/xlink" x="0px" y="0px"
	 viewBox="0 0 305 37" style="enable-background:new 0 0 305 37;" xml:space="preserve">
<style type="text/css">
	.st0{fill:#082CE9;}
</style>
<path class="st0" d="M299.7,36.4c-1.4,0-2.6-0.4-3.6-1.2c-0.9-0.9-1.3-1.9-1.3-3.2c0-1.3,0.4-2.4,1.3-3.2c0.9-0.9,2.1-1.3,3.6-1.3
	c1.4,0,2.6,0.4,3.5,1.3c0.9,0.9,1.4,1.9,1.4,3.2c0,1.2-0.5,2.3-1.4,3.2C302.2,36,301.1,36.4,299.7,36.4z"/>
<g>
	<path d="M16.4,34.1h-2.2L2.2,3.7h8.1l5,12.8l5.1-12.8h8L16.4,34.1z"/>
	<path d="M33.5,3.7h18v7.1H41v4.3h10.5v7.1H41v4.4h10.5v7.1h-18V3.7z"/>
	<path d="M74.7,3.7h6.7v30h-4.3l-10-13.9v13.9h-6.8v-30h4.3l10,13.9V3.7z"/>
	<path d="M91.1,3.7h18v7.1H98.6v4.3h10.5v7.1H98.6v4.4h10.5v7.1h-18V3.7z"/>
	<path d="M139,33.8h-8.4l-3.6-7.6c-0.4,0-0.7,0-1.1,0c-0.1,0-0.4,0-0.4,0v7.5H118v-30c0,0,7.8,0,7.9,0c6.2,0,11.3,5.1,11.3,11.2
		c0,3.1-1.3,6-3.4,8.1L139,33.8z M125.5,19.1c2.2,0,4.1-1.9,4.1-4.1s-1.9-4.1-4.1-4.1V19.1z"/>
	<path d="M153.6,3.4c6.8,0,9.9,7,9.9,15.3c0,8.4-3.1,15.4-9.9,15.4s-9.9-7-9.9-15.4C143.7,10.4,146.8,3.4,153.6,3.4z M153.6,26.3
		c1.3,0,1.9-3.3,1.9-7.6c0-4.2-0.7-7.5-1.9-7.5c-1.2,0-1.9,3.3-1.9,7.5C151.6,23,152.4,26.3,153.6,26.3z"/>
	<path d="M187.5,3.7h18v7.1H195v4.3h10.5v7.1H195v4.4h10.5v7.1h-18V3.7z"/>
	<path d="M219.3,34.1c-2.5,0-4.5-2-4.5-4.5s2-4.5,4.5-4.5s4.5,2,4.5,4.5S221.8,34.1,219.3,34.1z"/>
	<path d="M251.9,33.8V19.6l-4.5,7.7h-2.2l-4.5-7.7v14.1h-6.7v-30h5.9l6.5,11.3l6.4-11.3h5.9v30H251.9z"/>
	<path d="M273.2,34.1c-2.5,0-4.5-2-4.5-4.5s2-4.5,4.5-4.5s4.5,2,4.5,4.5S275.7,34.1,273.2,34.1z"/>
</g>
</svg>
